<?xml version="1.0" encoding="UTF-8"?>
<svg width="40" height="40" viewBox="0 0 24 24" fill="none" xmlns="http://www.w3.org/2000/svg">
    <!-- Simple neural network brain icon -->
    <defs>
        <linearGradient id="grad" x1="0%" y1="0%" x2="100%" y2="100%">
            <stop offset="0%" style="stop-color:#8EC9FF;stop-opacity:1" />
            <stop offset="100%" style="stop-color:#6B4EFF;stop-opacity:1" />
        </linearGradient>
    </defs>
    <path d="M9 2C6.243 2 4 4.243 4 7v2H3c-1.654 0-3 1.346-3 3s1.346 3 3 3h1v2c0 2.757 2.243 5 5 5h2V2H9zM21 9h-1V7c0-2.757-2.243-5-5-5h-2v20h2c2.757 0 5-2.243 5-5v-2h1c1.654 0 3-1.346 3-3s-1.346-3-3-3z" fill="url(#grad)"/>
    <!-- Nodes -->
    <circle cx="8" cy="8" r="1.2" fill="#fff"/>
    <circle cx="8" cy="12" r="1.2" fill="#fff"/>
    <circle cx="8" cy="16" r="1.2" fill="#fff"/>
    <circle cx="16" cy="8" r="1.2" fill="#fff"/>
    <circle cx="16" cy="12" r="1.2" fill="#fff"/>
    <circle cx="16" cy="16" r="1.2" fill="#fff"/>
    <!-- Connections -->
    <line x1="8" y1="8" x2="16" y2="8" stroke="#fff" stroke-width="0.8"/>
    <line x1="8" y1="12" x2="16" y2="12" stroke="#fff" stroke-width="0.8"/>
    <line x1="8" y1="16" x2="16" y2="16" stroke="#fff" stroke-width="0.8"/>
</svg>
