<svg viewBox="0 0 64 64" xmlns="http://www.w3.org/2000/svg">
  <!-- Transparent background for navbar use -->
  <rect width="64" height="64" fill="transparent"/>
  
  <!-- Six nodes concept within circle -->
  <g transform="translate(32, 32)">
    <!-- Outer circle boundary -->
    <circle cx="0" cy="0" r="28" fill="none" stroke="#ffffff" stroke-width="2" opacity="0.5"/>
    <circle cx="0" cy="0" r="28" fill="none" stroke="#60a5fa" stroke-width="1" opacity="0.7"/>
    
    <!-- Straight line connections showing DAG flow -->
    <!-- Primary flow paths -->
    <line x1="-18" y1="-12" x2="0" y2="-20" stroke="#ffffff" stroke-width="2" stroke-linecap="round"/>
    <line x1="18" y1="-12" x2="0" y2="-20" stroke="#ffffff" stroke-width="2" stroke-linecap="round"/>
    <line x1="0" y1="-20" x2="0" y2="0" stroke="#ffffff" stroke-width="2" stroke-linecap="round"/>
    <line x1="0" y1="0" x2="-18" y2="12" stroke="#ffffff" stroke-width="2" stroke-linecap="round"/>
    <line x1="0" y1="0" x2="18" y2="12" stroke="#ffffff" stroke-width="2" stroke-linecap="round"/>
    <line x1="-18" y1="12" x2="18" y2="12" stroke="#ffffff" stroke-width="2" stroke-linecap="round"/>
    
    <!-- Six nodes positioned in strategic locations -->
    <!-- Top input nodes -->
    <circle cx="-18" cy="-12" r="4" fill="#ffffff" stroke="#60a5fa" stroke-width="2"/>
    <circle cx="18" cy="-12" r="4" fill="#ffffff" stroke="#60a5fa" stroke-width="2"/>
    
    <!-- Top center processing node -->
    <circle cx="0" cy="-20" r="4" fill="#ffffff" stroke="#60a5fa" stroke-width="2"/>
    
    <!-- Center processing node -->
    <circle cx="0" cy="0" r="4.5" fill="#ffffff" stroke="#3b82f6" stroke-width="2"/>
    
    <!-- Bottom output nodes -->
    <circle cx="-18" cy="12" r="4" fill="#ffffff" stroke="#93c5fd" stroke-width="2"/>
    <circle cx="18" cy="12" r="4" fill="#ffffff" stroke="#93c5fd" stroke-width="2"/>
    
    <!-- Inner dots for visual hierarchy and node identification -->
    <circle cx="-18" cy="-12" r="1.5" fill="#1e40af"/>
    <circle cx="18" cy="-12" r="1.5" fill="#1e40af"/>
    <circle cx="0" cy="-20" r="1.5" fill="#1e40af"/>
    <circle cx="0" cy="0" r="2" fill="#3b82f6"/>
    <circle cx="-18" cy="12" r="1.5" fill="#60a5fa"/>
    <circle cx="18" cy="12" r="1.5" fill="#60a5fa"/>
  </g>
</svg> viewBox="0 0 64 64" xmlns="http://www.w3.org/2000/svg">
  <!-- Background -->
  <rect width="64" height="64" fill="#1e293b" rx="8"/>
  
  <!-- Simplified interconnected DAG -->
  <g transform="translate(10, 12)">
    <!-- Streamlined connection lines -->
    <path d="M 10 16 L 22 12" stroke="#2563eb" stroke-width="2" stroke-linecap="round" opacity="0.8"/>
    <path d="M 10 16 L 22 28" stroke="#2563eb" stroke-width="2" stroke-linecap="round" opacity="0.8"/>
    <path d="M 10 32 L 22 28" stroke="#2563eb" stroke-width="2" stroke-linecap="round" opacity="0.8"/>
    <path d="M 10 32 L 22 12" stroke="#2563eb" stroke-width="2" stroke-linecap="round" opacity="0.6"/>
    <path d="M 22 12 L 34 16" stroke="#2563eb" stroke-width="2" stroke-linecap="round" opacity="0.8"/>
    <path d="M 22 28 L 34 16" stroke="#2563eb" stroke-width="2" stroke-linecap="round" opacity="0.6"/>
    <path d="M 22 12 L 34 32" stroke="#2563eb" stroke-width="2" stroke-linecap="round" opacity="0.6"/>
    <path d="M 22 28 L 34 32" stroke="#2563eb" stroke-width="2" stroke-linecap="round" opacity="0.8"/>
    
    <!-- 6 nodes arranged in 3 layers -->
    <!-- Input layer -->
    <circle cx="10" cy="16" r="3.5" fill="#1e40af"/>
    <circle cx="10" cy="32" r="3.5" fill="#1e40af"/>
    
    <!-- Processing layer -->
    <circle cx="22" cy="12" r="3.5" fill="#3b82f6"/>
    <circle cx="22" cy="28" r="3.5" fill="#3b82f6"/>
    
    <!-- Output layer -->
    <circle cx="34" cy="16" r="3.5" fill="#1d4ed8"/>
    <circle cx="34" cy="32" r="3.5" fill="#1d4ed8"/>
  </g>
</svg>
